<?xml version="1.0" standalone="no"?><!DOCTYPE svg PUBLIC "-//W3C//DTD SVG 1.1//EN" "http://www.w3.org/Graphics/SVG/1.1/DTD/svg11.dtd"><svg t="1748260516916" class="icon" viewBox="0 0 1024 1024" version="1.1" xmlns="http://www.w3.org/2000/svg" p-id="6322" xmlns:xlink="http://www.w3.org/1999/xlink" width="200" height="200"><path d="M691.2 819.2H332.8c-99.84 0-179.2-79.36-179.2-179.2v-153.6c0-15.36 10.24-25.6 25.6-25.6h665.6c15.36 0 25.6 10.24 25.6 25.6v153.6c0 99.84-79.36 179.2-179.2 179.2zM204.8 512v128c0 71.68 56.32 128 128 128h358.4c71.68 0 128-56.32 128-128v-128H204.8z" fill="#383838" p-id="6323"></path><path d="M896 512H128c-15.36 0-25.6-10.24-25.6-25.6s10.24-25.6 25.6-25.6h768c15.36 0 25.6 10.24 25.6 25.6s-10.24 25.6-25.6 25.6z" fill="#383838" p-id="6324"></path><path d="M256 512c-15.36 0-25.6-10.24-25.6-25.6V204.8c0-43.52 33.28-76.8 76.8-76.8h76.8c43.52 0 76.8 33.28 76.8 76.8v25.6c0 15.36-10.24 25.6-25.6 25.6s-25.6-10.24-25.6-25.6V204.8c0-15.36-10.24-25.6-25.6-25.6h-76.8c-15.36 0-25.6 10.24-25.6 25.6v281.6c0 15.36-10.24 25.6-25.6 25.6z" fill="#383838" p-id="6325"></path><path d="M512 281.6h-153.6c-15.36 0-25.6-10.24-25.6-25.6s10.24-25.6 25.6-25.6h153.6c15.36 0 25.6 10.24 25.6 25.6s-10.24 25.6-25.6 25.6zM358.4 358.4c-2.56 0-7.68 0-10.24-2.56-2.56-2.56-5.12-2.56-7.68-5.12-5.12-5.12-7.68-10.24-7.68-17.92 0-7.68 2.56-12.8 7.68-17.92 2.56-2.56 5.12-5.12 7.68-5.12 10.24-5.12 20.48-2.56 28.16 5.12 2.56 2.56 5.12 5.12 5.12 7.68 2.56 2.56 2.56 7.68 2.56 10.24 0 7.68-2.56 12.8-7.68 17.92-5.12 5.12-10.24 7.68-17.92 7.68zM435.2 358.4c-2.56 0-7.68 0-10.24-2.56-2.56-2.56-5.12-2.56-7.68-5.12-5.12-5.12-7.68-10.24-7.68-17.92 0-7.68 2.56-12.8 7.68-17.92 2.56-2.56 5.12-5.12 7.68-5.12 10.24-5.12 20.48-2.56 28.16 5.12 2.56 2.56 5.12 5.12 5.12 7.68 0 2.56 2.56 5.12 2.56 10.24 0 2.56 0 7.68-2.56 10.24-2.56 2.56-2.56 5.12-5.12 7.68-5.12 5.12-10.24 7.68-17.92 7.68zM512 358.4c-2.56 0-7.68 0-10.24-2.56-2.56-2.56-5.12-2.56-7.68-5.12-5.12-5.12-7.68-10.24-7.68-17.92 0-7.68 2.56-12.8 7.68-17.92 2.56-2.56 5.12-5.12 7.68-5.12 10.24-2.56 20.48-2.56 28.16 5.12 5.12 5.12 7.68 10.24 7.68 17.92 0 7.68-2.56 12.8-7.68 17.92-5.12 5.12-10.24 7.68-17.92 7.68zM358.4 896c-15.36 0-25.6-10.24-25.6-25.6v-76.8c0-15.36 10.24-25.6 25.6-25.6s25.6 10.24 25.6 25.6v76.8c0 15.36-10.24 25.6-25.6 25.6zM665.6 896c-15.36 0-25.6-10.24-25.6-25.6v-76.8c0-15.36 10.24-25.6 25.6-25.6s25.6 10.24 25.6 25.6v76.8c0 15.36-10.24 25.6-25.6 25.6z" fill="#383838" p-id="6326"></path></svg>